<svg width="512" height="512" viewBox="0 0 512 512" fill="none" xmlns="http://www.w3.org/2000/svg">
  <!-- Background circle with Norway blue gradient -->
  <defs>
    <radialGradient id="bgGradient" cx="0.3" cy="0.3" r="0.8">
      <stop offset="0%" stop-color="#0056b3"/>
      <stop offset="100%" stop-color="#003d82"/>
    </radialGradient>
    
    <linearGradient id="flagGradient" x1="0%" y1="0%" x2="100%" y2="100%">
      <stop offset="0%" stop-color="#ed2939" stop-opacity="0.2"/>
      <stop offset="50%" stop-color="#ffffff" stop-opacity="0.1"/>
      <stop offset="100%" stop-color="#ed2939" stop-opacity="0.2"/>
    </linearGradient>
    
    <!-- Radar wave animation -->
    <g id="radarWave">
      <circle cx="256" cy="256" r="80" stroke="#ffffff" stroke-width="3" fill="none" opacity="0.3">
        <animate attributeName="r" values="80;160;240" dur="3s" repeatCount="indefinite"/>
        <animate attributeName="opacity" values="0.5;0.2;0" dur="3s" repeatCount="indefinite"/>
      </circle>
    </g>
  </defs>
  
  <circle cx="256" cy="256" r="256" fill="url(#bgGradient)"/>
  
  <!-- Animated radar waves -->
  <g opacity="0.4">
    <use href="#radarWave"/>
    <use href="#radarWave">
      <animateTransform attributeName="transform" type="rotate" values="0 256 256;360 256 256" dur="10s" repeatCount="indefinite"/>
    </use>
    <use href="#radarWave">
      <animateTransform attributeName="transform" type="rotate" values="120 256 256;480 256 256" dur="10s" repeatCount="indefinite"/>
    </use>
    <use href="#radarWave">
      <animateTransform attributeName="transform" type="rotate" values="240 256 256;600 256 256" dur="10s" repeatCount="indefinite"/>
    </use>
  </g>
  
  <!-- Main content group -->
  <g transform="translate(256,256)">
    <!-- Road/path background -->
    <g opacity="0.2">
      <path d="M-100,-20 Q0,-40 100,-20 Q0,40 -100,-20" fill="#ffffff"/>
      <path d="M-80,0 Q0,20 80,0" fill="none" stroke="#ffffff" stroke-width="2" stroke-dasharray="10,5"/>
    </g>
    
    <!-- Main radar camera unit -->
    <g transform="scale(1.5)">
      <!-- Camera base/mount -->
      <rect x="-25" y="15" width="50" height="8" rx="4" fill="#ffffff" opacity="0.8"/>
      
      <!-- Camera body -->
      <rect x="-25" y="-20" width="50" height="35" rx="6" fill="#ffffff"/>
      <rect x="-23" y="-18" width="46" height="31" rx="4" fill="#f8f9fa"/>
      
      <!-- Main lens assembly -->
      <circle cx="0" cy="0" r="18" fill="#003d82"/>
      <circle cx="0" cy="0" r="15" fill="#ed2939"/>
      <circle cx="0" cy="0" r="12" fill="#ffffff"/>
      <circle cx="0" cy="0" r="8" fill="#003d82"/>
      <circle cx="0" cy="0" r="4" fill="#ed2939"/>
      
      <!-- Lens reflection -->
      <ellipse cx="-3" cy="-3" rx="3" ry="2" fill="#ffffff" opacity="0.6"/>
      
      <!-- Side indicators/buttons -->
      <circle cx="-30" cy="-5" r="3" fill="#22c55e"/>
      <circle cx="30" cy="-5" r="3" fill="#ef4444"/>
      
      <!-- Speed detection lines -->
      <g stroke="#ffffff" stroke-width="4" stroke-linecap="round" opacity="0.9">
        <line x1="-55" y1="-12" x2="-35" y2="-12">
          <animate attributeName="opacity" values="0.3;1;0.3" dur="1.5s" repeatCount="indefinite"/>
        </line>
        <line x1="-55" y1="0" x2="-30" y2="0">
          <animate attributeName="opacity" values="0.3;1;0.3" dur="1.5s" begin="0.3s" repeatCount="indefinite"/>
        </line>
        <line x1="-55" y1="12" x2="-35" y2="12">
          <animate attributeName="opacity" values="0.3;1;0.3" dur="1.5s" begin="0.6s" repeatCount="indefinite"/>
        </line>
      </g>
    </g>
    
    <!-- Warning triangle with exclamation -->
    <g transform="translate(0,-90)">
      <path d="M-20,0 L0,-30 L20,0 Z" fill="#ed2939"/>
      <path d="M-18,0 L0,-26 L18,0 Z" fill="#ffffff"/>
      <path d="M-16,0 L0,-22 L16,0 Z" fill="#ed2939"/>
      
      <!-- Exclamation mark -->
      <circle cx="0" cy="-8" r="3" fill="#ffffff"/>
      <rect x="-2" y="-18" width="4" height="8" fill="#ffffff" rx="1"/>
    </g>
    
    <!-- Location/GPS pin -->
    <g transform="translate(0,100)">
      <path d="M0,-25 C-12,-25 -20,-17 -20,-5 C-20,7 0,25 0,25 C0,25 20,7 20,-5 C20,-17 12,-25 0,-25 Z" fill="#22c55e"/>
      <path d="M0,-23 C-10,-23 -18,-15 -18,-5 C-18,5 0,23 0,23 C0,23 18,5 18,-5 C18,-15 10,-23 0,-23 Z" fill="#ffffff"/>
      <circle cx="0" cy="-5" r="8" fill="#22c55e"/>
      <circle cx="0" cy="-5" r="5" fill="#ffffff"/>
    </g>
    
    <!-- Speed indicator dashboard -->
    <g transform="translate(80,0)" opacity="0.8">
      <circle cx="0" cy="0" r="20" fill="#ffffff"/>
      <circle cx="0" cy="0" r="18" fill="#f8f9fa"/>
      
      <!-- Speed numbers -->
      <text x="0" y="-5" text-anchor="middle" fill="#003d82" font-family="Arial, sans-serif" font-size="16" font-weight="bold">80</text>
      <text x="0" y="10" text-anchor="middle" fill="#666" font-family="Arial, sans-serif" font-size="8">km/t</text>
      
      <!-- Speed needle -->
      <line x1="0" y1="0" x2="0" y2="-15" stroke="#ed2939" stroke-width="2" stroke-linecap="round">
        <animateTransform attributeName="transform" type="rotate" values="0 0 0;45 0 0;-45 0 0;0 0 0" dur="4s" repeatCount="indefinite"/>
      </line>
    </g>
    
    <!-- Network/connection indicators -->
    <g transform="translate(-80,-60)" opacity="0.6">
      <rect x="0" y="15" width="4" height="5" fill="#22c55e"/>
      <rect x="6" y="10" width="4" height="10" fill="#22c55e"/>
      <rect x="12" y="5" width="4" height="15" fill="#22c55e"/>
      <rect x="18" y="0" width="4" height="20" fill="#22c55e"/>
    </g>
  </g>
  
  <!-- Norwegian flag pattern (subtle overlay) -->
  <g opacity="0.1" fill="url(#flagGradient)">
    <!-- Horizontal stripes -->
    <rect x="0" y="230" width="512" height="52" />
    <!-- Vertical stripes -->
    <rect x="230" y="0" width="52" height="512" />
  </g>
  
  <!-- App branding -->
  <g transform="translate(256,420)">
    <text x="0" y="0" text-anchor="middle" fill="#ffffff" font-family="Arial, sans-serif" font-size="36" font-weight="bold" opacity="0.9">
      RadarVarsler
    </text>
    <text x="0" y="25" text-anchor="middle" fill="#ffffff" font-family="Arial, sans-serif" font-size="14" opacity="0.7">
      Norsk PWA for Bilister
    </text>
  </g>
  
  <!-- Version and quality indicators -->
  <g transform="translate(450,62)">
    <circle cx="0" cy="0" r="20" fill="#22c55e"/>
    <text x="0" y="7" text-anchor="middle" fill="#ffffff" font-family="Arial, sans-serif" font-size="16" font-weight="bold">
      ✓
    </text>
  </g>
  
  <!-- Premium badge -->
  <g transform="translate(62,62)" opacity="0.8">
    <circle cx="0" cy="0" r="18" fill="#ffd700"/>
    <path d="M0,-10 L5,0 L0,10 L-5,0 Z" fill="#ffffff"/>
  </g>
  
  <!-- Subtle grid overlay for tech feel -->
  <g opacity="0.03" stroke="#ffffff" stroke-width="1">
    <defs>
      <pattern id="grid" width="32" height="32" patternUnits="userSpaceOnUse">
        <path d="M 32 0 L 0 0 0 32" fill="none"/>
      </pattern>
    </defs>
    <rect width="512" height="512" fill="url(#grid)"/>
  </g>
</svg>
